<?xml version="1.0" standalone="no"?>
<!DOCTYPE svg PUBLIC "-//W3C//DTD SVG 20010904//EN"
 "http://www.w3.org/TR/2001/REC-SVG-20010904/DTD/svg10.dtd">
<svg version="1.0" xmlns="http://www.w3.org/2000/svg"
 width="3001.000000pt" height="3001.000000pt" viewBox="0 0 3001.000000 3001.000000"
 preserveAspectRatio="xMidYMid meet">
<metadata>
Created by potrace 1.11, written by Peter Selinger 2001-2013
</metadata>
<g transform="translate(0.000000,3001.000000) scale(0.100000,-0.100000)"
fill="#000000" stroke="none">
<path d="M3580 29999 c-787 -64 -1512 -351 -2130 -845 -169 -135 -455 -420
-586 -584 -367 -460 -623 -978 -754 -1525 -32 -134 -64 -304 -59 -310 3 -2
8651 3190 8814 3254 50 20 46 20 -2565 19 -1438 0 -2662 -5 -2720 -9z"/>
<path d="M8083 27552 c-3615 -1351 -6569 -2459 -6565 -2463 23 -18 13485
-5460 13500 -5457 19 6 13580 5496 13599 5507 6 3 -2973 1101 -6620 2439
l-6632 2432 -355 0 -355 -1 -6572 -2457z m2730 -592 c681 -44 1213 -231 1544
-543 457 -432 463 -1024 15 -1534 -155 -177 -433 -378 -721 -521 -427 -213
-869 -341 -1416 -409 -203 -26 -772 -25 -970 0 -864 112 -1438 460 -1608 974
-195 590 182 1196 999 1606 626 314 1431 473 2157 427z m8348 -635 c920 -88
1549 -466 1714 -1030 38 -128 45 -304 17 -435 -83 -396 -367 -740 -843 -1021
-866 -512 -2161 -680 -3108 -403 -683 200 -1096 608 -1128 1115 -27 440 268
888 807 1224 349 218 824 394 1315 489 125 24 405 62 510 69 150 10 576 6 716
-8z"/>
<path d="M21155 29975 c1583 -590 8799 -3264 8802 -3261 9 8 -68 359 -111 506
-150 513 -406 991 -757 1410 -116 139 -388 406 -520 512 -523 419 -1123 694
-1759 807 -326 58 -123 55 -3055 57 l-2690 3 90 -34z"/>
<path d="M0 14517 l0 -9043 6748 -2732 6747 -2732 263 0 262 0 0 8938 0 8937
-6978 2824 c-3837 1554 -6992 2831 -7009 2838 l-33 13 0 -9043z m2435 5644
c515 -110 1009 -419 1403 -876 557 -647 818 -1466 682 -2135 -58 -286 -182
-524 -369 -710 -611 -607 -1680 -449 -2501 370 -781 779 -1085 1877 -734 2649
55 120 159 267 260 367 186 184 405 296 684 349 116 22 445 14 575 -14z m8640
-3485 c428 -90 843 -323 1212 -679 538 -520 877 -1233 900 -1892 17 -473 -120
-868 -398 -1145 -175 -175 -389 -289 -651 -347 -65 -14 -127 -18 -283 -18
-236 0 -344 18 -569 92 -764 253 -1468 987 -1749 1825 -299 888 -75 1702 563
2047 98 52 290 116 410 135 144 23 409 15 565 -18z m-4515 -3017 c716 -65
1458 -586 1915 -1344 200 -334 335 -711 381 -1067 13 -103 15 -176 11 -323 -7
-214 -24 -319 -81 -490 -222 -663 -848 -1004 -1576 -859 -439 87 -877 337
-1255 718 -352 354 -602 759 -748 1212 -90 280 -123 504 -114 784 13 415 133
728 378 985 212 222 480 350 805 384 115 12 156 12 284 0z m-4125 -2649 c440
-94 880 -345 1245 -710 476 -475 792 -1099 860 -1698 18 -155 8 -460 -19 -595
-57 -283 -180 -524 -360 -707 -150 -152 -293 -242 -496 -309 -169 -56 -309
-75 -505 -68 -428 17 -866 196 -1280 523 -118 94 -370 348 -469 473 -396 500
-619 1064 -638 1611 -13 368 64 679 230 933 200 306 492 496 867 563 116 21
437 12 565 -16z m8580 -3475 c750 -132 1486 -729 1889 -1533 289 -576 361
-1187 199 -1677 -110 -332 -341 -604 -642 -755 -298 -149 -705 -173 -1082 -65
-1222 352 -2175 1816 -1939 2977 121 591 535 987 1115 1067 95 13 350 6 460
-14z"/>
<path d="M22983 20717 l-6993 -2832 0 -8937 0 -8938 263 0 263 0 6740 2729
6739 2728 3 9042 c2 7230 0 9041 -10 9040 -7 0 -3160 -1275 -7005 -2832z
m1012 -6772 c937 -164 1448 -1210 1179 -2413 -110 -493 -334 -960 -650 -1357
-105 -131 -336 -365 -454 -459 -391 -310 -804 -469 -1220 -469 -395 -1 -720
132 -995 408 -263 262 -427 614 -491 1050 -22 146 -24 510 -5 660 47 375 159
740 331 1080 178 353 377 625 649 887 373 360 806 578 1246 628 102 11 299 4
410 -15z"/>
<path d="M50 3287 c0 -14 11 -83 25 -154 121 -613 387 -1178 789 -1683 131
-164 417 -449 586 -584 521 -416 1130 -691 1775 -801 305 -51 161 -49 2655
-51 2246 -3 2314 -2 2274 15 -32 15 -8021 3251 -8086 3276 -14 6 -18 2 -18
-18z"/>
<path d="M25895 1664 c-2233 -904 -4064 -1646 -4070 -1648 -5 -3 1032 -4 2305
-2 2519 2 2356 -1 2680 57 636 113 1236 388 1759 807 132 106 404 373 520 512
351 419 607 897 757 1410 40 138 120 497 112 505 -2 2 -1830 -737 -4063 -1641z"/>
</g>
</svg>
